<svg width="2083" height="1768" viewBox="0 0 2083 1768" fill="none" xmlns="http://www.w3.org/2000/svg">
<path d="M620.79 646.17C621.11 623.11 625.77 601.64 634.75 581.77C643.74 561.89 655.74 544.53 670.78 529.68C685.81 514.82 703.16 503.18 722.8 494.76C742.45 486.32 763.33 482.26 785.45 482.57C807.57 482.88 828.33 487.52 847.73 496.5C867.14 505.47 884.15 517.59 898.76 532.86C913.37 548.12 924.9 565.81 933.32 585.94C941.75 606.06 945.8 627.65 945.48 650.7C945.16 673.75 940.51 695.22 931.52 715.1C922.54 734.97 910.53 752.33 895.5 767.19C880.47 782.04 863.13 793.68 843.48 802.12C823.84 810.55 802.96 814.61 780.83 814.31C758.72 814 737.96 809.35 718.55 800.38C699.15 791.4 682.13 779.28 667.52 764.02C652.91 748.75 641.4 731.06 632.96 710.95C624.54 690.82 620.48 669.23 620.8 646.18L620.79 646.17ZM864.3 649.57C864.67 622.75 857.21 601.22 841.9 585.02C826.6 568.8 807.42 560.54 784.36 560.22C761.31 559.9 741.9 567.63 726.15 583.41C710.4 599.18 702.34 620.49 701.96 647.31C701.59 674.13 709.05 695.64 724.36 711.86C739.66 728.07 758.85 736.34 781.9 736.66C804.96 736.98 824.36 729.24 840.11 713.47C855.86 697.68 863.92 676.39 864.3 649.57Z" stroke="url(#paint0_linear_308_61)" stroke-width="4" stroke-miterlimit="10"/>
<path d="M1654.05 383.11C1665.73 386.79 1674.55 394.38 1680.54 405.89C1686.53 417.4 1687.69 428.99 1684.01 440.66C1680.33 452.33 1672.74 461.16 1661.23 467.15C1649.72 473.14 1638.14 474.3 1626.46 470.62C1614.79 466.94 1605.96 459.35 1599.97 447.84C1593.98 436.33 1592.82 424.74 1596.5 413.07C1600.18 401.39 1607.77 392.57 1619.28 386.58C1630.79 380.59 1642.38 379.43 1654.05 383.11Z" stroke="url(#paint1_linear_308_61)" stroke-width="4" stroke-miterlimit="10"/>
<path d="M1681.05 1675.42C1692.73 1679.1 1701.55 1686.69 1707.54 1698.2C1713.53 1709.71 1714.69 1721.3 1711.01 1732.97C1707.33 1744.64 1699.74 1753.47 1688.23 1759.46C1676.72 1765.45 1665.14 1766.61 1653.46 1762.93C1641.79 1759.25 1632.96 1751.66 1626.97 1740.15C1620.98 1728.64 1619.82 1717.05 1623.5 1705.38C1627.18 1693.7 1634.77 1684.88 1646.28 1678.89C1657.79 1672.9 1669.38 1671.74 1681.05 1675.42Z" stroke="url(#paint2_linear_308_61)" stroke-width="4" stroke-miterlimit="10"/>
<path d="M714.39 183.17C726.07 186.85 734.89 194.44 740.88 205.95C746.87 217.46 748.03 229.05 744.35 240.72C740.67 252.39 733.08 261.22 721.57 267.21C710.06 273.2 698.47 274.36 686.8 270.68C675.13 267 666.3 259.41 660.31 247.9C654.32 236.39 653.16 224.8 656.84 213.13C660.52 201.45 668.11 192.63 679.62 186.64C691.13 180.65 702.72 179.49 714.39 183.17Z" stroke="url(#paint3_linear_308_61)" stroke-width="4" stroke-miterlimit="10"/>
<path d="M956.417 1010.11L908.893 1076.47L975.25 1123.99L1022.77 1057.64L956.417 1010.11Z" stroke="url(#paint4_linear_308_61)" stroke-width="4" stroke-miterlimit="10"/>
<path d="M1469.57 106.663L1389.04 119.98L1402.36 200.506L1482.89 187.19L1469.57 106.663Z" stroke="url(#paint5_linear_308_61)" stroke-width="4" stroke-miterlimit="10"/>
<path d="M198.07 752.44L269.9 787.87L237.86 852.85L339.5 901.9L289.57 1003.04L391.19 1052.05L323.36 1189.45L251.53 1154L283.58 1089.09L181.95 1040.07L231.89 938.91L130.28 889.88L198.07 752.44Z" stroke="url(#paint6_linear_308_61)" stroke-width="4" stroke-miterlimit="10"/>
<path d="M1986.67 444.44L2044.38 499.99L1994.14 552.18L2076.13 629.74L1997.88 710.99L2079.87 788.51L1973.56 898.87L1915.87 843.3L1966.08 791.17L1884.1 713.65L1962.37 632.38L1880.4 554.84L1986.67 444.44Z" stroke="url(#paint7_linear_308_61)" stroke-width="4" stroke-miterlimit="10"/>
<path d="M1651.29 733.03C1657.56 733.12 1663.91 734.69 1669.81 737.9C1689.25 748.46 1696.44 772.78 1685.88 792.21C1661.07 837.87 1619.23 846.03 1591.55 851.43C1565.59 856.49 1558.26 859.24 1552.26 870.26C1546.27 881.29 1547.95 888.93 1557.84 913.47C1568.37 939.64 1584.29 979.18 1559.48 1024.84C1534.67 1070.5 1492.83 1078.65 1465.15 1084.04C1439.2 1089.1 1431.86 1091.84 1425.87 1102.87C1415.31 1122.29 1391.03 1129.5 1371.55 1118.93C1352.12 1108.37 1344.93 1084.05 1355.49 1064.61C1380.3 1018.96 1422.14 1010.81 1449.82 1005.42C1475.77 1000.36 1483.11 997.62 1489.1 986.59C1495.09 975.57 1493.41 967.92 1483.52 943.39C1472.99 917.22 1457.07 877.68 1481.88 832.02C1506.69 786.36 1548.53 778.2 1576.21 772.8C1602.17 767.74 1609.5 764.99 1615.5 753.97C1622.85 740.43 1636.88 732.83 1651.29 733.03Z" stroke="url(#paint8_linear_308_61)" stroke-width="4" stroke-miterlimit="10"/>
<path d="M1042.76 237.67C1044.31 237.69 1045.88 237.8 1047.45 238.01C1208.13 259.05 1321.74 406.9 1300.69 567.58C1297.82 589.52 1277.72 604.93 1255.78 602.1C1233.85 599.23 1218.39 579.12 1221.26 557.19C1236.57 440.3 1153.93 332.75 1037.05 317.44C1015.12 314.57 999.66 294.46 1002.53 272.53C1005.2 252.17 1022.71 237.4 1042.75 237.68L1042.76 237.67Z" stroke="url(#paint9_linear_308_61)" stroke-width="4" stroke-miterlimit="10"/>
<path d="M1356.38 1317.65C1356.28 1319.2 1356.09 1320.76 1355.81 1322.32C1326.84 1481.76 1173.55 1587.91 1014.1 1558.94C992.33 1554.99 977.93 1534.15 981.85 1512.37C985.8 1490.61 1006.65 1476.17 1028.42 1480.12C1144.41 1501.2 1255.91 1423.99 1276.99 1308.01C1280.94 1286.25 1301.79 1271.81 1323.56 1275.76C1343.76 1279.43 1357.65 1297.66 1356.38 1317.66V1317.65Z" stroke="url(#paint10_linear_308_61)" stroke-width="4" stroke-miterlimit="10"/>
<path d="M1845.03 1180.02L1898.49 1239.69L1728.8 1391.72L1880.84 1561.4L1821.17 1614.86L1615.69 1385.51L1845.03 1180.02Z" stroke="url(#paint11_linear_308_61)" stroke-width="4" stroke-miterlimit="10"/>
<path d="M265.18 1.48999L353.85 81.19L305.1 134.69L364.31 188.64L467.5 75.37L385.23 1.71999" stroke="url(#paint12_linear_308_61)" stroke-width="4" stroke-miterlimit="10"/>
<path d="M1922.9 1.79004C1935.64 17.44 1942.92 39.02 1942.57 63.52C1942.2 90.34 1934.13 111.64 1918.38 127.42C1902.63 143.19 1883.23 150.93 1860.17 150.61C1837.12 150.29 1817.93 142.01 1802.63 125.81C1787.33 109.59 1779.86 88.08 1780.23 61.26C1780.56 37.68 1787.86 16.95 1800.08 1.90004" stroke="url(#paint13_linear_308_61)" stroke-width="4" stroke-miterlimit="10"/>
<path d="M1709.96 2.34988C1703.06 20.0699 1699.35 39.9799 1699.06 60.1299C1698.74 83.1799 1702.79 104.77 1711.22 124.9C1719.65 145.02 1731.17 162.7 1745.78 177.98C1760.39 193.24 1777.41 205.36 1796.81 214.34C1816.22 223.31 1836.98 227.96 1859.09 228.27C1881.21 228.58 1902.1 224.51 1921.74 216.08C1941.39 207.64 1958.73 196 1973.76 181.15C1988.79 166.29 2000.8 148.93 2009.78 129.06C2018.77 109.18 2023.42 87.7099 2023.74 64.6599C2024.04 42.8999 2019.95 21.2699 2012.46 2.12988" stroke="url(#paint14_linear_308_61)" stroke-width="4" stroke-miterlimit="10"/>
<defs>
<linearGradient id="paint0_linear_308_61" x1="620.782" y1="482.553" x2="981.37" y2="538.468" gradientUnits="userSpaceOnUse">
<stop stop-color="#93F5EC"/>
<stop offset="1" stop-color="#A77BF3"/>
</linearGradient>
<linearGradient id="paint1_linear_308_61" x1="1594.4" y1="381.011" x2="1696.14" y2="397.129" gradientUnits="userSpaceOnUse">
<stop stop-color="#93F5EC"/>
<stop offset="1" stop-color="#A77BF3"/>
</linearGradient>
<linearGradient id="paint2_linear_308_61" x1="1621.4" y1="1673.32" x2="1723.14" y2="1689.44" gradientUnits="userSpaceOnUse">
<stop stop-color="#93F5EC"/>
<stop offset="1" stop-color="#A77BF3"/>
</linearGradient>
<linearGradient id="paint3_linear_308_61" x1="654.741" y1="181.071" x2="756.475" y2="197.189" gradientUnits="userSpaceOnUse">
<stop stop-color="#93F5EC"/>
<stop offset="1" stop-color="#A77BF3"/>
</linearGradient>
<linearGradient id="paint4_linear_308_61" x1="908.893" y1="1076.47" x2="973.276" y2="1011.21" gradientUnits="userSpaceOnUse">
<stop stop-color="#93F5EC"/>
<stop offset="1" stop-color="#A77BF3"/>
</linearGradient>
<linearGradient id="paint5_linear_308_61" x1="1389.04" y1="119.98" x2="1480.71" y2="119.361" gradientUnits="userSpaceOnUse">
<stop stop-color="#93F5EC"/>
<stop offset="1" stop-color="#A77BF3"/>
</linearGradient>
<linearGradient id="paint6_linear_308_61" x1="130.28" y1="752.44" x2="424.349" y2="780.256" gradientUnits="userSpaceOnUse">
<stop stop-color="#93F5EC"/>
<stop offset="1" stop-color="#A77BF3"/>
</linearGradient>
<linearGradient id="paint7_linear_308_61" x1="1880.4" y1="444.44" x2="2106.14" y2="460.139" gradientUnits="userSpaceOnUse">
<stop stop-color="#93F5EC"/>
<stop offset="1" stop-color="#A77BF3"/>
</linearGradient>
<linearGradient id="paint8_linear_308_61" x1="1350.62" y1="733.026" x2="1730.19" y2="785.368" gradientUnits="userSpaceOnUse">
<stop stop-color="#93F5EC"/>
<stop offset="1" stop-color="#A77BF3"/>
</linearGradient>
<linearGradient id="paint9_linear_308_61" x1="1002.19" y1="237.67" x2="1338.74" y2="281.673" gradientUnits="userSpaceOnUse">
<stop stop-color="#93F5EC"/>
<stop offset="1" stop-color="#A77BF3"/>
</linearGradient>
<linearGradient id="paint10_linear_308_61" x1="981.207" y1="1275.11" x2="1390.56" y2="1359.44" gradientUnits="userSpaceOnUse">
<stop stop-color="#93F5EC"/>
<stop offset="1" stop-color="#A77BF3"/>
</linearGradient>
<linearGradient id="paint11_linear_308_61" x1="1615.69" y1="1180.02" x2="1933.9" y2="1212.81" gradientUnits="userSpaceOnUse">
<stop stop-color="#93F5EC"/>
<stop offset="1" stop-color="#A77BF3"/>
</linearGradient>
<linearGradient id="paint12_linear_308_61" x1="265.18" y1="1.48999" x2="488.696" y2="39.7735" gradientUnits="userSpaceOnUse">
<stop stop-color="#93F5EC"/>
<stop offset="1" stop-color="#A77BF3"/>
</linearGradient>
<linearGradient id="paint13_linear_308_61" x1="1780.22" y1="1.79004" x2="1959.5" y2="32.778" gradientUnits="userSpaceOnUse">
<stop stop-color="#93F5EC"/>
<stop offset="1" stop-color="#A77BF3"/>
</linearGradient>
<linearGradient id="paint14_linear_308_61" x1="1699.04" y1="2.12988" x2="2050.13" y2="81.9955" gradientUnits="userSpaceOnUse">
<stop stop-color="#93F5EC"/>
<stop offset="1" stop-color="#A77BF3"/>
</linearGradient>
</defs>
</svg>
