<svg width="24" height="20" viewBox="0 0 24 20" fill="current" xmlns="http://www.w3.org/2000/svg">
<path d="M14.7302 0.0470334C14.0927 -0.136731 13.4289 0.234548 13.2451 0.872098L8.44472 17.6734C8.26096 18.311 8.63224 18.9748 9.26979 19.1585C9.90734 19.3423 10.5711 18.971 10.7549 18.3335L15.5553 1.53215C15.739 0.8946 15.3678 0.230798 14.7302 0.0470334ZM17.753 4.55114C17.2842 5.01992 17.2842 5.78123 17.753 6.25002L21.102 9.60278L17.7492 12.9555C17.2804 13.4243 17.2804 14.1856 17.7492 14.6544C18.218 15.1232 18.9793 15.1232 19.4481 14.6544L23.6484 10.4541C24.1172 9.98531 24.1172 9.224 23.6484 8.75521L19.4481 4.55489C18.9793 4.0861 18.218 4.0861 17.7492 4.55489L17.753 4.55114ZM6.2508 4.55114C5.78201 4.08235 5.02071 4.08235 4.55192 4.55114L0.35159 8.75146C-0.117197 9.22025 -0.117197 9.98156 0.35159 10.4503L4.55192 14.6507C5.02071 15.1195 5.78201 15.1195 6.2508 14.6507C6.71959 14.1819 6.71959 13.4206 6.2508 12.9518L2.89804 9.60278L6.2508 6.25002C6.71959 5.78123 6.71959 5.01992 6.2508 4.55114Z" fill="current"/>
</svg>
