<svg width="30" height="35" viewBox="0 0 30 35" fill="none" xmlns="http://www.w3.org/2000/svg">
<path d="M29.6184 26.2499C29.8538 25.8272 30 25.3509 30 24.9232V10.0766C30 9.64891 29.854 9.17273 29.6185 8.75L15 17.5L29.6184 26.2499Z" fill="white"/>
<path d="M16.2991 34.6792L28.7011 27.2559C29.0584 27.0421 29.3831 26.6728 29.6185 26.25L15.0001 17.5L0.381714 26.2501C0.617107 26.6728 0.941912 27.0422 1.29907 27.2559L13.7011 34.6792C14.4155 35.1069 15.5847 35.1069 16.2991 34.6792Z" fill="white"/>
<path d="M29.6185 8.74998C29.383 8.32715 29.0582 7.95789 28.7011 7.74403L16.2991 0.320779C15.5847 -0.106926 14.4154 -0.106926 13.701 0.320779L1.29902 7.74403C0.584512 8.17164 0 9.22139 0 10.0767V24.9233C0 25.351 0.146177 25.8273 0.381668 26.25L15 17.5001L29.6185 8.74998Z" fill="white"/>
<path d="M15 27.8675C9.48599 27.8675 5 23.2167 5 17.5001C5 11.7835 9.48599 7.13269 15 7.13269C18.5581 7.13269 21.8764 9.11774 23.66 12.3131L19.3322 14.9095C18.4395 13.31 16.7794 12.3164 15 12.3164C12.243 12.3164 10 14.6417 10 17.5001C10 20.3583 12.243 22.6838 15 22.6838C16.7796 22.6838 18.4397 21.6901 19.3325 20.0904L23.6602 22.6866C21.8767 25.8823 18.5583 27.8675 15 27.8675Z" fill="#0D0D0D"/>
<path d="M25 16.924H23.8888V15.7721H22.7778V16.924H21.6666V18.0759H22.7778V19.2279H23.8888V18.0759H25V16.924Z" fill="#0D0D0D"/>
<path d="M29.1667 16.924H28.0555V15.7721H26.9446V16.924H25.8334V18.0759H26.9446V19.2279H28.0555V18.0759H29.1667V16.924Z" fill="#0D0D0D"/>
</svg>
