<svg width="36" height="40" viewBox="0 0 36 40" fill="none" xmlns="http://www.w3.org/2000/svg">
<g clip-path="url(#clip0_256_377)">
<path fill-rule="evenodd" clip-rule="evenodd" d="M16.9607 0.272875C17.604 -0.0899818 18.396 -0.0899818 19.0383 0.272875C22.2167 2.06621 31.7813 7.4643 34.9607 9.25763C35.6039 9.61953 35.9999 10.29 35.9999 11.0157C35.9999 14.6024 35.9999 25.3976 35.9999 28.9843C35.9999 29.71 35.6039 30.3805 34.9607 30.7433C31.7822 32.5367 22.2176 37.9348 19.0383 39.7281C18.395 40.0909 17.603 40.0909 16.9607 39.7281C13.7823 37.9348 4.21767 32.5367 1.03831 30.7433C0.395999 30.3805 0 29.7109 0 28.9852C0 25.3986 0 14.6033 0 11.0167C0 10.291 0.395999 9.62049 1.03926 9.25763C4.21673 7.4643 13.7832 2.06621 16.9607 0.272875Z" fill="white"/>
<path fill-rule="evenodd" clip-rule="evenodd" d="M0.287999 29.9088C0.0359999 29.5698 0 29.2479 0 28.8145C0 25.2488 0 14.5155 0 10.9488C0 10.2269 0.395052 9.56026 1.03642 9.20026C4.20346 7.41741 13.7359 2.05074 16.9029 0.266935C17.5443 -0.0940174 18.413 -0.0863984 19.0544 0.274554C22.2214 2.05741 31.7216 7.37836 34.8887 9.16121C35.1444 9.30598 35.3396 9.48026 35.5139 9.70978L0.287999 29.9088Z" fill="white"/>
<path fill-rule="evenodd" clip-rule="evenodd" d="M17.9999 6.66699C25.3202 6.66699 31.2631 12.6413 31.2631 20.0003C31.2631 27.3594 25.3202 33.3336 17.9999 33.3336C10.6796 33.3336 4.73682 27.3594 4.73682 20.0003C4.73682 12.6413 10.6796 6.66699 17.9999 6.66699ZM17.9999 13.3337C21.6596 13.3337 24.6315 16.3203 24.6315 20.0003C24.6315 23.6794 21.6596 26.667 17.9999 26.667C14.3403 26.667 11.3684 23.6794 11.3684 20.0003C11.3684 16.3203 14.3393 13.3337 17.9999 13.3337Z" fill="#0D0D0D"/>
<path fill-rule="evenodd" clip-rule="evenodd" d="M35.512 9.71924C36.0009 10.1792 35.9914 10.8726 35.9914 11.4183C35.9914 15.0326 35.9611 25.3126 35.9999 28.9268C36.0037 29.304 35.8796 29.7011 35.6939 30.0002L17.6144 20.0002L35.512 9.71924Z" fill="white"/>
</g>
<defs>
<clipPath id="clip0_256_377">
<rect width="36" height="40" fill="white"/>
</clipPath>
</defs>
</svg>
