<svg width="24" height="24" viewBox="0 0 24 24" fill="current" xmlns="http://www.w3.org/2000/svg">
<path d="M21 0H3C1.34766 0 0 1.34988 0 2.96269V16.4427C0 18.0978 1.34766 19.4054 3 19.4054H7.5V23.4339C7.5 23.8957 8.01656 24.164 8.39625 23.8893L14.25 19.4899H21C22.6523 19.4899 24 18.14 24 16.5272V2.96269C24 1.34988 22.6547 0 21 0ZM21.75 16.5272C21.75 16.938 21.4102 17.2784 21 17.2784H13.5L9.75 20.0956V17.2784H3C2.58984 17.2784 2.25 16.938 2.25 16.5272V3.00495C2.25 2.59411 2.58984 2.25371 3 2.25371H21C21.4102 2.25371 21.75 2.59411 21.75 3.00495V16.5272ZM10.1297 5.96294C9.69024 5.52276 8.97844 5.52276 8.53875 5.96294L5.53875 8.96789C5.0993 9.40806 5.0993 10.121 5.53875 10.5614L8.53875 13.5664C8.79844 13.7899 9.08906 13.8979 9.375 13.8979C9.66094 13.8979 9.95063 13.7878 10.1705 13.5678C10.6099 13.1276 10.6099 12.4146 10.1705 11.9742L7.96406 9.76607L10.1686 7.55791C10.6078 7.11797 10.6078 6.40429 10.1297 5.96294ZM15.3797 5.96294C14.9402 5.52276 14.2284 5.52276 13.7887 5.96294C13.3491 6.40312 13.3493 7.11609 13.7887 7.5565L16.0359 9.76607L13.8314 11.9742C13.392 12.4144 13.392 13.1274 13.8314 13.5678C14.0484 13.7899 14.3391 13.8979 14.625 13.8979C14.9109 13.8979 15.2006 13.7878 15.4205 13.5678L18.4205 10.5628C18.8599 10.1226 18.8599 9.40966 18.4205 8.96925L15.3797 5.96294Z" fill="current"/>
</svg>
