<svg width="24" height="24" viewBox="0 0 24 24" fill="current" xmlns="http://www.w3.org/2000/svg">
<path d="M11.0672 0.172374C11.6672 -0.0574579 12.3328 -0.0574579 12.9328 0.172374L22.3078 3.7645C23.325 4.15513 24 5.14093 24 6.24416V17.7878C24 18.8911 23.325 19.8759 22.3078 20.2689L12.9328 23.858C12.3328 24.0473 11.6672 24.0473 11.0672 23.858L1.69406 20.2689C0.674531 19.8759 0 18.8911 0 17.7878V6.24416C0 5.14093 0.674531 4.15513 1.69406 3.7645L11.0672 0.172374ZM12.1312 2.29716C12.0469 2.26449 11.9109 2.26449 11.8687 2.29716L2.98219 5.69965L12 9.27922L21.0187 5.69965L12.1312 2.29716ZM2.49187 18.1429L10.875 21.3532V11.2773L2.25 7.85402V17.7878C2.25 17.9441 2.34656 18.0861 2.49187 18.1429ZM13.125 21.3532L21.5062 18.1429C21.6516 18.0861 21.75 17.9441 21.75 17.7878V7.85402L13.125 11.2773V21.3532Z" fill="current"/>
</svg>
