<svg width="43" height="33" viewBox="0 0 43 33" fill="none" xmlns="http://www.w3.org/2000/svg">
<path d="M21.5005 0C20.9563 0 20.4188 0.103105 19.9082 0.30195L1.06257 7.76232C0.424305 8.02008 0.00103414 8.6829 0.00103414 9.42672C0.00103414 10.1706 0.424305 10.8334 1.06257 11.0911L4.95263 12.6303C3.85079 14.5304 3.22596 16.7766 3.22596 19.1407V21.2101C3.22596 23.3017 2.50035 25.4595 1.72771 27.1607C1.291 28.1182 0.793828 29.0608 0.216029 29.9298C0.00103415 30.2465 -0.0594332 30.6589 0.0615014 31.0345C0.182436 31.4101 0.464617 31.69 0.813983 31.7857L5.11388 32.9641C5.39606 33.0451 5.6984 32.9862 5.94698 32.8168C6.19557 32.6474 6.37026 32.3675 6.424 32.0509C7.0018 28.8988 6.7129 26.0708 6.28291 24.0455C6.06792 22.9997 5.77902 21.9319 5.3759 20.9524V19.1407C5.3759 16.9166 6.0612 14.8176 7.25039 13.1385C8.11709 11.997 9.23909 11.0764 10.5559 10.5093L21.1041 5.96535C21.655 5.72968 22.2799 6.02427 22.4949 6.62817C22.7099 7.23207 22.4411 7.91698 21.8902 8.15264L11.342 12.6966C10.5089 13.0575 9.77658 13.6098 9.17863 14.2874L19.9015 18.5294C20.4121 18.7283 20.9496 18.8314 21.4938 18.8314C22.038 18.8314 22.5755 18.7283 23.0861 18.5294L41.9385 11.0911C42.5767 10.8407 43 10.1706 43 9.42672C43 8.6829 42.5767 8.02008 41.9385 7.76232L23.0928 0.30195C22.5822 0.103105 22.0447 0 21.5005 0ZM8.60083 27.691C8.60083 30.2907 14.3788 32.9935 21.5005 32.9935C28.6222 32.9935 34.4002 30.2907 34.4002 27.691L33.3723 16.9828L23.8184 20.7683C23.0727 21.0628 22.2866 21.2101 21.5005 21.2101C20.7144 21.2101 19.9216 21.0628 19.1826 20.7683L9.62877 16.9828L8.60083 27.691Z" fill="black"/>
</svg>
