<svg width="32" height="37" viewBox="0 0 32 37" fill="none" xmlns="http://www.w3.org/2000/svg">
<path d="M17.3988 6.61973L23.1211 10.0004C23.3268 10.1191 23.3343 10.4484 23.1211 10.567L16.3216 14.5871C16.1159 14.7097 15.8729 14.702 15.6821 14.5871L8.88264 10.567C8.67322 10.4522 8.6695 10.1152 8.88264 10.0004L14.6012 6.61973V0L0 8.62974V25.8893L5.59888 22.5813V15.82C5.59514 15.5787 5.8719 15.4065 6.07761 15.5366L12.8771 19.5567C13.0828 19.6792 13.1987 19.8975 13.1987 20.1234V28.1597C13.2024 28.4009 12.9256 28.5732 12.7199 28.443L6.99766 25.0623L1.39879 28.3703L16 37L30.6012 28.3703L25.0024 25.0623L19.2801 28.443C19.0781 28.5693 18.7939 28.4047 18.8013 28.1597V20.1234C18.8013 19.8822 18.9322 19.6677 19.1229 19.5567L25.9224 15.5366C26.1244 15.4103 26.4086 15.5711 26.4011 15.82V22.5813L32 25.8893V8.62974L17.3988 0V6.61973Z" fill="white"/>
</svg>
