<svg width="2085" height="1768" viewBox="0 0 2085 1768" fill="none" xmlns="http://www.w3.org/2000/svg">
<g clip-path="url(#clip0_308_60)">
<path d="M622.79 646.17C623.11 623.11 627.77 601.64 636.75 581.77C645.74 561.89 657.74 544.53 672.78 529.68C687.81 514.82 705.16 503.18 724.8 494.76C744.45 486.32 765.33 482.26 787.45 482.57C809.57 482.88 830.33 487.52 849.73 496.5C869.14 505.47 886.15 517.59 900.76 532.86C915.37 548.12 926.9 565.81 935.32 585.94C943.75 606.06 947.8 627.65 947.48 650.7C947.16 673.75 942.51 695.22 933.52 715.1C924.54 734.97 912.53 752.33 897.5 767.19C882.47 782.04 865.13 793.68 845.48 802.12C825.84 810.55 804.96 814.61 782.83 814.31C760.72 814 739.96 809.35 720.55 800.38C701.15 791.4 684.13 779.28 669.52 764.02C654.91 748.75 643.4 731.06 634.96 710.95C626.54 690.82 622.48 669.23 622.8 646.18L622.79 646.17ZM866.3 649.57C866.67 622.75 859.21 601.22 843.9 585.02C828.6 568.8 809.42 560.54 786.36 560.22C763.31 559.9 743.9 567.63 728.15 583.41C712.4 599.18 704.34 620.49 703.96 647.31C703.59 674.13 711.05 695.64 726.36 711.86C741.66 728.07 760.85 736.34 783.9 736.66C806.96 736.98 826.36 729.24 842.11 713.47C857.86 697.68 865.92 676.39 866.3 649.57Z" stroke="#746F6F" stroke-width="4" stroke-miterlimit="10"/>
<path d="M1656.05 383.11C1667.73 386.79 1676.55 394.38 1682.54 405.89C1688.53 417.4 1689.69 428.99 1686.01 440.66C1682.33 452.33 1674.74 461.16 1663.23 467.15C1651.72 473.14 1640.14 474.3 1628.46 470.62C1616.79 466.94 1607.96 459.35 1601.97 447.84C1595.98 436.33 1594.82 424.74 1598.5 413.07C1602.18 401.39 1609.77 392.57 1621.28 386.58C1632.79 380.59 1644.38 379.43 1656.05 383.11Z" stroke="#746F6F" stroke-width="4" stroke-miterlimit="10"/>
<path d="M1683.05 1675.42C1694.73 1679.1 1703.55 1686.69 1709.54 1698.2C1715.53 1709.71 1716.69 1721.3 1713.01 1732.97C1709.33 1744.64 1701.74 1753.47 1690.23 1759.46C1678.72 1765.45 1667.14 1766.61 1655.46 1762.93C1643.79 1759.25 1634.96 1751.66 1628.97 1740.15C1622.98 1728.64 1621.82 1717.05 1625.5 1705.38C1629.18 1693.7 1636.77 1684.88 1648.28 1678.89C1659.79 1672.9 1671.38 1671.74 1683.05 1675.42Z" stroke="#746F6F" stroke-width="4" stroke-miterlimit="10"/>
<path d="M716.39 183.17C728.07 186.85 736.89 194.44 742.88 205.95C748.87 217.46 750.03 229.05 746.35 240.72C742.67 252.39 735.08 261.22 723.57 267.21C712.06 273.2 700.47 274.36 688.8 270.68C677.13 267 668.3 259.41 662.31 247.9C656.32 236.39 655.16 224.8 658.84 213.13C662.52 201.45 670.11 192.63 681.62 186.64C693.13 180.65 704.72 179.49 716.39 183.17Z" stroke="#746F6F" stroke-width="4" stroke-miterlimit="10"/>
<path d="M958.417 1010.11L910.893 1076.47L977.25 1123.99L1024.77 1057.64L958.417 1010.11Z" stroke="#746F6F" stroke-width="4" stroke-miterlimit="10"/>
<path d="M1471.57 106.663L1391.04 119.98L1404.36 200.506L1484.89 187.19L1471.57 106.663Z" stroke="#746F6F" stroke-width="4" stroke-miterlimit="10"/>
<path d="M200.07 752.44L271.9 787.87L239.86 852.85L341.5 901.9L291.57 1003.04L393.19 1052.05L325.36 1189.45L253.53 1154L285.58 1089.09L183.95 1040.07L233.89 938.91L132.28 889.88L200.07 752.44Z" stroke="#746F6F" stroke-width="4" stroke-miterlimit="10"/>
<path d="M1988.67 444.44L2046.38 499.99L1996.14 552.18L2078.13 629.74L1999.88 710.99L2081.87 788.51L1975.56 898.87L1917.87 843.3L1968.08 791.17L1886.1 713.65L1964.37 632.38L1882.4 554.84L1988.67 444.44Z" stroke="#746F6F" stroke-width="4" stroke-miterlimit="10"/>
<path d="M1653.29 733.03C1659.56 733.12 1665.91 734.69 1671.81 737.9C1691.25 748.46 1698.44 772.78 1687.88 792.21C1663.07 837.87 1621.23 846.03 1593.55 851.43C1567.59 856.49 1560.26 859.24 1554.26 870.26C1548.27 881.29 1549.95 888.93 1559.84 913.47C1570.37 939.64 1586.29 979.18 1561.48 1024.84C1536.67 1070.5 1494.83 1078.65 1467.15 1084.04C1441.2 1089.1 1433.86 1091.84 1427.87 1102.87C1417.31 1122.29 1393.03 1129.5 1373.55 1118.93C1354.12 1108.37 1346.93 1084.05 1357.49 1064.61C1382.3 1018.96 1424.14 1010.81 1451.82 1005.42C1477.77 1000.36 1485.11 997.62 1491.1 986.59C1497.09 975.57 1495.41 967.92 1485.52 943.39C1474.99 917.22 1459.07 877.68 1483.88 832.02C1508.69 786.36 1550.53 778.2 1578.21 772.8C1604.17 767.74 1611.5 764.99 1617.5 753.97C1624.85 740.43 1638.88 732.83 1653.29 733.03Z" stroke="#746F6F" stroke-width="4" stroke-miterlimit="10"/>
<path d="M1044.76 237.67C1046.31 237.69 1047.88 237.8 1049.45 238.01C1210.13 259.05 1323.74 406.9 1302.69 567.58C1299.82 589.52 1279.72 604.93 1257.78 602.1C1235.85 599.23 1220.39 579.12 1223.26 557.19C1238.57 440.3 1155.93 332.75 1039.05 317.44C1017.12 314.57 1001.66 294.46 1004.53 272.53C1007.2 252.17 1024.71 237.4 1044.75 237.68L1044.76 237.67Z" stroke="#746F6F" stroke-width="4" stroke-miterlimit="10"/>
<path d="M1358.38 1317.65C1358.28 1319.2 1358.09 1320.76 1357.81 1322.32C1328.84 1481.76 1175.55 1587.91 1016.1 1558.94C994.33 1554.99 979.93 1534.15 983.85 1512.37C987.8 1490.61 1008.65 1476.17 1030.42 1480.12C1146.41 1501.2 1257.91 1423.99 1278.99 1308.01C1282.94 1286.25 1303.79 1271.81 1325.56 1275.76C1345.76 1279.43 1359.65 1297.66 1358.38 1317.66V1317.65Z" stroke="#746F6F" stroke-width="4" stroke-miterlimit="10"/>
<path d="M1847.03 1180.02L1900.49 1239.69L1730.8 1391.72L1882.84 1561.4L1823.17 1614.86L1617.69 1385.51L1847.03 1180.02Z" stroke="#746F6F" stroke-width="4" stroke-miterlimit="10"/>
<path d="M267.18 1.48999L355.85 81.19L307.1 134.69L366.31 188.64L469.5 75.37L387.23 1.71999" stroke="#746F6F" stroke-width="4" stroke-miterlimit="10"/>
<path d="M1924.9 1.79004C1937.64 17.44 1944.92 39.02 1944.57 63.52C1944.2 90.34 1936.13 111.64 1920.38 127.42C1904.63 143.19 1885.23 150.93 1862.17 150.61C1839.12 150.29 1819.93 142.01 1804.63 125.81C1789.33 109.59 1781.86 88.08 1782.23 61.26C1782.56 37.68 1789.86 16.95 1802.08 1.90004" stroke="#746F6F" stroke-width="4" stroke-miterlimit="10"/>
<path d="M1711.96 2.34988C1705.06 20.0699 1701.35 39.9799 1701.06 60.1299C1700.74 83.1799 1704.79 104.77 1713.22 124.9C1721.65 145.02 1733.17 162.7 1747.78 177.98C1762.39 193.24 1779.41 205.36 1798.81 214.34C1818.22 223.31 1838.98 227.96 1861.09 228.27C1883.21 228.58 1904.1 224.51 1923.74 216.08C1943.39 207.64 1960.73 196 1975.76 181.15C1990.79 166.29 2002.8 148.93 2011.78 129.06C2020.77 109.18 2025.42 87.7099 2025.74 64.6599C2026.04 42.8999 2021.95 21.2699 2014.46 2.12988" stroke="#746F6F" stroke-width="4" stroke-miterlimit="10"/>
</g>
<defs>
<clipPath id="clip0_308_60">
<rect width="2084.71" height="1767.04" fill="white"/>
</clipPath>
</defs>
</svg>
