<svg width="898" height="877" viewBox="0 0 898 877" fill="none" xmlns="http://www.w3.org/2000/svg">
<path d="M655.418 58.6847L655.397 58.6695C592.588 11.6999 503.962 -4.0832 419.753 4.91254C336.78 13.9019 258.4 46.4984 189.295 90.4177L189.275 90.4305L189.255 90.443C118.921 133.272 58.3028 187.182 29.2211 252.052C0.112207 316.983 1.22871 393.235 3.58228 470.174L655.418 58.6847ZM655.418 58.6847L655.438 58.6994C687.411 81.6153 712.776 112.413 735.762 146.901C751.135 169.967 765.365 194.553 779.796 219.487C786.979 231.898 794.212 244.395 801.661 256.834L801.668 256.846L801.676 256.858C807.966 267.093 814.351 277.22 820.681 287.258C837.493 313.921 853.911 339.959 867.102 365.735C885.242 401.18 897.062 435.741 895.332 470.126L895.331 470.146L895.33 470.167C894.177 503.994 879.454 537.734 859.093 572.381C848.923 589.686 837.391 607.147 825.509 624.909C823.952 627.237 822.389 629.569 820.823 631.907C810.446 647.395 799.911 663.119 789.932 679.11C779.746 695.433 770.198 712.033 760.862 728.262C759.669 730.337 758.478 732.407 757.291 734.468C746.804 752.674 736.518 770.304 725.768 786.547C704.25 819.058 681.056 845.711 651.126 860.105M655.418 58.6847L651.126 860.105M651.126 860.105C621.153 873.954 584.362 875.967 544.207 873.712C524.153 872.586 503.352 870.404 482.226 868.143L479.296 867.829C459.14 865.67 438.711 863.482 418.478 862.131L418.475 862.131C391.846 860.378 365.554 860.143 340.049 859.916C324.455 859.777 309.155 859.64 294.251 859.161C254.812 857.892 217.828 854.229 184.134 841.946C117.923 816.249 64.3028 755.824 36.2998 688.514C8.30023 621.211 5.93581 545.98 3.58231 470.175L651.126 860.105Z" stroke="url(#paint0_linear_380_15)" stroke-width="5"/>
<defs>
<linearGradient id="paint0_linear_380_15" x1="0" y1="0" x2="994.996" y2="161.418" gradientUnits="userSpaceOnUse">
<stop stop-color="#93F5EC"/>
<stop offset="1" stop-color="#A77BF3"/>
</linearGradient>
</defs>
</svg>
