<svg width="840" height="875" viewBox="0 0 840 875" fill="none" xmlns="http://www.w3.org/2000/svg">
<path d="M48.1157 617.249C17.1076 548.514 0.313696 473.676 4.40407 399.315C8.36445 324.865 33.2994 250.764 77.049 191.557C121.018 132.313 184.239 87.887 253.139 55.276C321.951 22.7934 396.623 1.86932 472.126 3.50872C547.719 5.02033 624.27 29.1857 684.669 73.9615C745.195 118.828 789.826 184.485 813.111 254.694C836.359 324.685 838.605 399.278 834.746 474.947C830.759 550.526 820.885 627.143 783.201 686.966C745.737 746.75 680.464 789.739 610.537 821.632C540.57 853.306 465.899 874.23 391.743 870.666C317.498 867.231 243.641 839.218 184.165 793.941C124.562 748.575 79.2508 686.073 48.1157 617.249Z" stroke="url(#paint0_linear_1107_1352)" stroke-width="6"/>
<defs>
<linearGradient id="paint0_linear_1107_1352" x1="535.941" y1="1040.62" x2="-163.252" y2="368.734" gradientUnits="userSpaceOnUse">
<stop stop-color="#93F5EC"/>
<stop offset="1" stop-color="#A77BF3"/>
</linearGradient>
</defs>
</svg>
