<svg id="visual" viewBox="0 0 900 600" width="900" height="600" xmlns="http://www.w3.org/2000/svg" xmlns:xlink="http://www.w3.org/1999/xlink" version="1.1"><g transform="translate(449.91166514063593 296.75675545995864)"><path d="M134.8 -234.1C176.2 -209.5 212.4 -176.5 237.5 -136.1C262.7 -95.7 276.8 -47.8 275.6 -0.8C274.3 46.3 257.5 92.7 233.4 135C209.3 177.2 177.9 215.5 137.8 242.3C97.7 269.2 48.8 284.6 0.8 283.3C-47.3 282 -94.7 264 -132.6 235.8C-170.4 207.7 -198.9 169.5 -224.6 128.5C-250.2 87.5 -273.1 43.8 -275.3 -1.3C-277.6 -46.3 -259.2 -92.7 -234.3 -135C-209.3 -177.2 -177.9 -215.5 -137.8 -240.8C-97.7 -266.2 -48.8 -278.6 -1.1 -276.7C46.7 -274.8 93.3 -258.7 134.8 -234.1" fill="none" stroke="#ffffff" stroke-width="6"></path></g></svg>