<svg width="870" height="884" viewBox="0 0 870 884" fill="none" xmlns="http://www.w3.org/2000/svg">
<path d="M645.514 70.0003C710.339 108.519 767.021 160.19 806.322 223.449C845.781 286.707 867.858 361.709 865.98 435.302C863.944 509.051 837.638 581.705 799.903 647.938C762.167 714.015 713.001 773.985 650.212 815.949C587.423 858.069 510.855 882.182 435.697 880.147C360.382 878.111 286.163 849.927 226.819 805.771C167.631 761.772 123.006 701.958 82.7649 637.76C42.6804 573.562 6.82351 505.137 3.37875 434.519C-0.222601 364.058 28.5881 291.405 67.5766 225.171C106.722 159.094 155.888 99.1242 218.677 59.5094C281.465 19.738 358.033 0.322037 432.722 3.29706C507.567 6.27209 580.534 31.4815 645.514 70.0003Z" stroke="url(#paint0_linear_380_17)" stroke-width="6"/>
<defs>
<linearGradient id="paint0_linear_380_17" x1="3.07471" y1="3" x2="961.198" y2="152.336" gradientUnits="userSpaceOnUse">
<stop stop-color="#93F5EC"/>
<stop offset="1" stop-color="#A77BF3"/>
</linearGradient>
</defs>
</svg>
