<svg width="32" height="36" viewBox="0 0 32 36" fill="none" xmlns="http://www.w3.org/2000/svg">
<path d="M31.9461 10.5565C31.9459 9.9528 31.8168 9.4193 31.5556 8.96142C31.2991 8.51117 30.915 8.1338 30.3997 7.83542C26.1466 5.38305 21.8894 2.93817 17.6376 0.483297C16.4914 -0.178453 15.38 -0.154328 14.2423 0.516922C12.5494 1.5153 4.07375 6.37117 1.54813 7.83405C0.508 8.43617 0.001875 9.35767 0.001625 10.5554C0 15.4873 0.001625 20.419 0 25.351C0 25.9415 0.123875 26.4647 0.3735 26.9157C0.630125 27.3795 1.01962 27.7673 1.54675 28.0724C4.0725 29.5353 12.5492 34.3908 14.2417 35.3894C15.38 36.061 16.4914 36.085 17.638 35.423C21.8899 32.968 26.1474 30.5233 30.4011 28.0709C30.9282 27.7659 31.3178 27.3779 31.5744 26.9144C31.8236 26.4634 31.9478 25.9403 31.9478 25.3497C31.9478 25.3497 31.9478 15.4885 31.9461 10.5565Z" fill="white"/>
<path d="M16.0228 17.9053L0.373535 26.9158C0.63016 27.3796 1.01966 27.7674 1.54679 28.0725C4.07254 29.5354 12.5493 34.3909 14.2418 35.3895C15.38 36.0611 16.4914 36.0851 17.638 35.4231C21.8899 32.9681 26.1474 30.5234 30.4012 28.071C30.9283 27.766 31.3178 27.378 31.5744 26.9145L16.0228 17.9053Z" fill="white"/>
<path d="M31.9461 10.5566C31.9458 9.9528 31.8167 9.4193 31.5556 8.96143L16.0227 17.9052L31.5743 26.9144C31.8236 26.4634 31.9475 25.9403 31.9477 25.3497C31.9477 25.3497 31.9477 15.4886 31.9461 10.5566Z" fill="white"/>
<path d="M25.2365 14.5369V16.2211H26.9207V14.5369H27.7628V16.2211H29.447V17.0632H27.7628V18.7474H29.447V19.5895H27.7628V21.2737H26.9207V19.5895H25.2365V21.2737H24.3944V19.5895H22.7102V18.7474H24.3944V17.0632H22.7102V16.2211H24.3944V14.5369H25.2365ZM26.9207 17.0632H25.2365V18.7474H26.9207V17.0632Z" fill="#0D0D0D"/>
<path d="M16.0571 6.07812C20.45 6.07812 24.2855 8.46391 26.3398 12.0101L26.3198 11.976L21.1512 14.952C20.1329 13.2278 18.266 12.0643 16.1245 12.0403L16.0571 12.0399C12.7914 12.0399 10.1438 14.6874 10.1438 17.9531C10.1438 19.021 10.4285 20.0221 10.9237 20.8867C11.943 22.6661 13.8591 23.8663 16.0571 23.8663C18.2687 23.8663 20.1957 22.6509 21.2098 20.8525L21.1851 20.8956L26.3459 23.8854C24.3141 27.4016 20.5313 29.78 16.1894 29.8274L16.0571 29.8281C11.6503 29.8281 7.80392 27.4276 5.75476 23.8627C4.75439 22.1223 4.18201 20.1046 4.18201 17.9531C4.18201 11.3948 9.49854 6.07812 16.0571 6.07812Z" fill="#0D0D0D"/>
</svg>
