<svg width="23" height="17" viewBox="0 0 23 17" fill="current" xmlns="http://www.w3.org/2000/svg">
<path d="M18.8503 1.50965C18.8444 1.49827 18.8347 1.48936 18.8228 1.4845C17.4528 0.855903 16.007 0.407665 14.5216 0.151002C14.5081 0.148493 14.4942 0.150303 14.4818 0.156174C14.4694 0.162045 14.4591 0.171679 14.4525 0.183705C14.2556 0.541027 14.0769 0.908057 13.917 1.28339C12.3159 1.04034 10.6872 1.04034 9.0861 1.28339C8.92516 0.907104 8.74358 0.539983 8.54218 0.183705C8.53527 0.17194 8.52498 0.162529 8.51265 0.156695C8.50032 0.150862 8.48651 0.148878 8.47304 0.151002C6.98752 0.407126 5.54163 0.855398 4.17175 1.48453C4.16002 1.48951 4.15013 1.49799 4.14343 1.50883C1.40395 5.59988 0.653506 9.59034 1.02165 13.5314C1.02268 13.5411 1.02565 13.5504 1.03038 13.5589C1.0351 13.5674 1.04148 13.5748 1.04914 13.5808C2.64432 14.7619 4.42854 15.6635 6.32567 16.247C6.33902 16.251 6.35329 16.2508 6.36655 16.2465C6.3798 16.2421 6.39141 16.2338 6.3998 16.2227C6.80727 15.6683 7.16831 15.0812 7.47926 14.4674C7.48353 14.459 7.48597 14.4498 7.48642 14.4403C7.48686 14.4309 7.4853 14.4215 7.48184 14.4127C7.47838 14.4039 7.4731 14.3959 7.46634 14.3894C7.45959 14.3828 7.45151 14.3777 7.44264 14.3744C6.8733 14.1566 6.32212 13.894 5.79426 13.5891C5.78467 13.5834 5.77662 13.5755 5.77081 13.566C5.765 13.5566 5.76162 13.5458 5.76096 13.5347C5.76031 13.5236 5.76239 13.5125 5.76704 13.5024C5.77169 13.4923 5.77875 13.4835 5.78761 13.4767C5.89837 13.3938 6.0092 13.3074 6.11496 13.2202C6.12436 13.2125 6.13573 13.2075 6.14779 13.2059C6.15986 13.2043 6.17214 13.2061 6.18324 13.211C9.64147 14.7893 13.3855 14.7893 16.8028 13.211C16.8139 13.2058 16.8263 13.2037 16.8386 13.2052C16.8508 13.2067 16.8624 13.2116 16.8719 13.2194C16.9777 13.3066 17.0885 13.3938 17.2001 13.4767C17.209 13.4834 17.2161 13.4921 17.2209 13.5022C17.2256 13.5123 17.2277 13.5234 17.2272 13.5345C17.2266 13.5456 17.2233 13.5564 17.2176 13.5659C17.2118 13.5754 17.2038 13.5834 17.1943 13.5891C16.6676 13.8965 16.1159 14.159 15.5451 14.3736C15.5362 14.377 15.5282 14.3822 15.5215 14.3889C15.5148 14.3956 15.5095 14.4036 15.5061 14.4125C15.5028 14.4213 15.5013 14.4308 15.5018 14.4403C15.5023 14.4497 15.5048 14.459 15.5092 14.4674C15.8253 15.0778 16.1858 15.6641 16.5878 16.2217C16.596 16.2331 16.6075 16.2417 16.6208 16.2462C16.6341 16.2508 16.6485 16.251 16.6619 16.2469C18.5625 15.6653 20.3498 14.7637 21.947 13.5808C21.9548 13.5751 21.9612 13.5679 21.966 13.5595C21.9707 13.5511 21.9736 13.5418 21.9745 13.5322C22.4152 8.97596 21.2366 5.0182 18.8503 1.50965ZM7.99572 11.1317C6.95454 11.1317 6.09664 10.1762 6.09664 9.0028C6.09664 7.82937 6.9379 6.87383 7.99572 6.87383C9.0618 6.87383 9.9114 7.83767 9.89476 9.00273C9.89476 10.1762 9.05346 11.1317 7.99572 11.1317ZM15.0172 11.1317C13.976 11.1317 13.1181 10.1762 13.1181 9.0028C13.1181 7.82937 13.9594 6.87383 15.0172 6.87383C16.0833 6.87383 16.9329 7.83767 16.9163 9.00273C16.9163 10.1762 16.0833 11.1317 15.0172 11.1317Z" fill="current"/>
</svg>
