<svg width="23" height="23" viewBox="0 0 23 23" fill="current" xmlns="http://www.w3.org/2000/svg">
<path d="M7.69294 17.9647C7.69294 18.0569 7.58629 18.1308 7.45181 18.1308C7.29879 18.1446 7.19214 18.0708 7.19214 17.9647C7.19214 17.8724 7.29879 17.7986 7.43327 17.7986C7.57238 17.7847 7.69294 17.8586 7.69294 17.9647ZM6.25081 17.7571C6.21835 17.8493 6.31109 17.9554 6.4502 17.9831C6.57077 18.0293 6.70988 17.9831 6.7377 17.8909C6.76552 17.7986 6.67742 17.6925 6.53831 17.651C6.41774 17.6187 6.28327 17.6648 6.25081 17.7571ZM8.3004 17.6786C8.16593 17.7109 8.07318 17.7986 8.0871 17.9047C8.10101 17.997 8.22157 18.0569 8.36069 18.0246C8.49516 17.9924 8.5879 17.9047 8.57399 17.8124C8.56008 17.7248 8.43488 17.6648 8.3004 17.6786ZM11.3516 0C4.91996 0 0 4.85793 0 11.2568C0 16.373 3.23669 20.7512 7.85988 22.2921C8.45343 22.3982 8.6621 22.0337 8.6621 21.7338C8.6621 21.4478 8.64818 19.87 8.64818 18.9012C8.64818 18.9012 5.40222 19.5932 4.72056 17.5264C4.72056 17.5264 4.19194 16.1839 3.43145 15.8379C3.43145 15.8379 2.36956 15.1136 3.50565 15.1274C3.50565 15.1274 4.66028 15.2197 5.29556 16.3177C6.31109 18.0985 8.0129 17.5864 8.67601 17.2819C8.78266 16.5437 9.08407 16.0316 9.41794 15.7272C6.82581 15.4411 4.21048 15.0674 4.21048 10.6293C4.21048 9.36064 4.5629 8.72398 5.30484 7.91202C5.18427 7.61215 4.79012 6.37575 5.4254 4.77951C6.39456 4.47963 8.625 6.02513 8.625 6.02513C9.55242 5.76678 10.5494 5.63299 11.5371 5.63299C12.5248 5.63299 13.5218 5.76678 14.4492 6.02513C14.4492 6.02513 16.6796 4.47502 17.6488 4.77951C18.2841 6.38036 17.8899 7.61215 17.7694 7.91202C18.5113 8.7286 18.9657 9.36525 18.9657 10.6293C18.9657 15.0813 16.2345 15.4365 13.6423 15.7272C14.069 16.0916 14.4306 16.7836 14.4306 17.8678C14.4306 19.4225 14.4167 21.3463 14.4167 21.7246C14.4167 22.0245 14.63 22.3889 15.219 22.2828C19.8561 20.7512 23 16.373 23 11.2568C23 4.85793 17.7833 0 11.3516 0ZM4.50726 15.9117C4.44698 15.9578 4.46089 16.0639 4.53972 16.1516C4.61391 16.2254 4.72056 16.2577 4.78085 16.1977C4.84113 16.1516 4.82722 16.0455 4.74839 15.9578C4.67419 15.884 4.56754 15.8517 4.50726 15.9117ZM4.00645 15.538C3.97399 15.598 4.02036 15.6718 4.1131 15.7179C4.1873 15.7641 4.28004 15.7502 4.3125 15.6856C4.34496 15.6257 4.29859 15.5519 4.20585 15.5057C4.1131 15.478 4.03891 15.4919 4.00645 15.538ZM5.50887 17.1804C5.43468 17.2404 5.4625 17.3788 5.56915 17.4664C5.67581 17.5725 5.81028 17.5864 5.87056 17.5126C5.93085 17.4526 5.90302 17.3142 5.81028 17.2265C5.70827 17.1204 5.56915 17.1066 5.50887 17.1804ZM4.98024 16.5022C4.90605 16.5484 4.90605 16.6683 4.98024 16.7744C5.05444 16.8805 5.17964 16.9267 5.23992 16.8805C5.31411 16.8205 5.31411 16.7006 5.23992 16.5945C5.175 16.4884 5.05444 16.4422 4.98024 16.5022Z" fill="current"/>
</svg>
