<svg width="39" height="58" viewBox="0 0 39 58" fill="none" xmlns="http://www.w3.org/2000/svg">
<path d="M31.9091 0H7.09091C3.17429 0 0 3.24551 0 7.25V29V50.75C0 54.7545 3.17429 58 7.09091 58H31.9091C35.8257 58 39 54.7545 39 50.75V7.25C39 3.24551 35.8202 0 31.9091 0ZM33.6818 50.75C33.6818 51.7494 32.8865 52.5625 31.9091 52.5625H7.09091C6.11369 52.5625 5.31818 51.7469 5.31818 50.75V7.25C5.31818 6.25063 6.11347 5.4375 7.09091 5.4375H12.4091V9.0625C12.4091 10.0639 13.2068 10.875 14.1818 10.875H24.8182C25.7932 10.875 26.5909 10.0639 26.5909 9.0625V5.4375H31.9091C32.8841 5.4375 33.6818 6.25086 33.6818 7.25V50.75Z" fill="white"/>
</svg>
