<svg width="69" height="36" viewBox="0 0 69 36" fill="none" xmlns="http://www.w3.org/2000/svg">
<path d="M34.5 1.79679C52.9791 1.79679 67.1888 9.51872 67.1888 18C67.1888 26.4813 52.9683 34.2032 34.5 34.2032C16.0209 34.2032 1.81125 26.4813 1.81125 18C1.81125 9.51872 16.0317 1.79679 34.5 1.79679ZM34.5 0C15.4495 0 0 8.05348 0 18C0 27.9465 15.4495 36 34.5 36C53.5505 36 69 27.9465 69 18C69 8.05348 53.5505 0 34.5 0ZM23.5247 16.5562C22.673 20.8877 19.665 20.4385 15.967 20.4385L17.4441 12.8877C21.5409 12.8877 24.3225 12.4492 23.5247 16.5562ZM10.5009 28.0856H14.4577L15.3956 23.2941C19.8267 23.2941 22.5759 23.615 25.1203 21.2513C27.9342 18.6845 28.6673 14.1176 26.662 11.8289C25.6163 10.631 23.9344 10.0428 21.6488 10.0428H14.0264L10.5009 28.0856ZM30.5217 5.24064H34.4569L33.5189 10.0321C36.915 10.0321 40.0631 9.7861 41.5833 11.1765C43.1789 12.631 42.4134 14.492 40.6884 23.2727H36.6994C38.3597 14.7807 38.6723 14.0749 38.0686 13.4332C37.4864 12.8128 36.1603 12.9412 32.9583 12.9412L30.9314 23.2727H26.9963L30.5217 5.24064ZM54.4453 16.5562C53.5828 20.9519 50.4886 20.4385 46.8877 20.4385L48.3647 12.8877C52.4831 12.8877 55.2431 12.4492 54.4453 16.5562ZM41.4216 28.0856H45.3891L46.327 23.2941C50.9845 23.2941 53.5613 23.5615 56.0517 21.2513C58.8656 18.6845 59.5988 14.1176 57.5934 11.8289C56.5477 10.631 54.8658 10.0428 52.5802 10.0428H44.9578L41.4216 28.0856Z" fill="white"/>
</svg>
