<svg width="41" height="36" viewBox="0 0 41 36" fill="none" xmlns="http://www.w3.org/2000/svg">
<path d="M33.4887 11.6662C33.0563 11.5216 32.6238 11.385 32.1914 11.2564C32.2635 10.9591 32.3275 10.6618 32.3916 10.3645C33.3766 5.57548 32.7279 1.72658 30.5418 0.457006C28.4357 -0.756322 25.0004 0.505218 21.525 3.54256C21.1807 3.83986 20.8443 4.15324 20.524 4.46661C20.3078 4.2577 20.0836 4.04878 19.8594 3.8479C16.2158 0.601642 12.5643 -0.764357 10.3781 0.513254C8.28008 1.73462 7.65547 5.35853 8.53633 9.89043C8.62441 10.3404 8.72051 10.7823 8.83262 11.2323C8.32012 11.377 7.81562 11.5377 7.34316 11.7064C3.06699 13.1929 0 15.5392 0 17.9659C0 20.4729 3.26719 22.9879 7.71152 24.5147C8.07188 24.6352 8.43223 24.7557 8.80059 24.8602C8.68047 25.3423 8.57637 25.8164 8.48027 26.3065C7.63945 30.7661 8.29609 34.3016 10.3941 35.515C12.5563 36.7685 16.1918 35.4828 19.7312 32.3732C20.0115 32.1241 20.2918 31.8669 20.5721 31.5937C20.9244 31.9393 21.2928 32.2687 21.6611 32.5901C25.0885 35.5471 28.4758 36.7444 30.5658 35.531C32.7279 34.2775 33.4326 30.4768 32.5197 25.8485C32.4477 25.495 32.3676 25.1334 32.2795 24.7637C32.5357 24.6914 32.784 24.6111 33.0322 24.5307C37.6527 22.996 41 20.5131 41 17.9659C41 15.5312 37.8449 13.1688 33.4887 11.6662ZM22.6541 4.84427C25.633 2.24084 28.4117 1.22036 29.677 1.95157C31.0303 2.73099 31.5508 5.88082 30.702 10.019C30.6459 10.2922 30.5898 10.5574 30.5178 10.8225C28.74 10.4208 26.9383 10.1315 25.1285 9.97078C24.0875 8.47622 22.9504 7.04594 21.7172 5.70405C22.0295 5.40674 22.3338 5.12551 22.6541 4.84427ZM13.3891 22.1362C13.7975 22.8353 14.2139 23.5343 14.6543 24.2173C13.4051 24.0807 12.1639 23.8799 10.9387 23.6147C11.291 22.4576 11.7314 21.2604 12.2439 20.039C12.6123 20.7461 12.9887 21.4452 13.3891 22.1362ZM10.9627 12.4698C12.1158 12.2126 13.341 12.0037 14.6143 11.843C14.1898 12.5099 13.7734 13.1929 13.3811 13.884C12.9887 14.567 12.6043 15.266 12.2439 15.9731C11.7395 14.7759 11.315 13.6027 10.9627 12.4698ZM13.1568 18.0061C13.6854 16.8972 14.2619 15.8124 14.8705 14.7437C15.4791 13.675 16.1357 12.6385 16.8244 11.618C18.0256 11.5296 19.2508 11.4814 20.5 11.4814C21.7492 11.4814 22.9824 11.5296 24.1756 11.618C24.8562 12.6305 25.5049 13.667 26.1215 14.7277C26.7381 15.7883 27.3146 16.8731 27.8592 17.9739C27.3227 19.0828 26.7461 20.1756 26.1295 21.2523C25.5209 22.321 24.8723 23.3576 24.1916 24.3861C22.9984 24.4745 21.7572 24.5147 20.5 24.5147C19.2428 24.5147 18.0256 24.4745 16.8484 24.4022C16.1518 23.3817 15.4951 22.3371 14.8785 21.2684C14.2619 20.1997 13.6934 19.1149 13.1568 18.0061ZM27.6189 22.1201C28.0273 21.413 28.4117 20.6979 28.7881 19.9747C29.3006 21.1398 29.749 22.321 30.1414 23.5343C28.9002 23.8156 27.643 24.0325 26.3777 24.1772C26.8102 23.5022 27.2186 22.8112 27.6189 22.1201ZM28.7721 15.9731C28.3957 15.266 28.0113 14.5589 27.6109 13.8679C27.2186 13.1849 26.8102 12.5099 26.3857 11.843C27.675 12.0037 28.9082 12.2207 30.0613 12.4858C29.693 13.675 29.2605 14.8321 28.7721 15.9731ZM20.516 6.93345C21.3568 7.84947 22.1496 8.8137 22.8863 9.81008C21.3008 9.73776 19.7072 9.73776 18.1217 9.81008C18.9064 8.77353 19.7152 7.80929 20.516 6.93345ZM11.227 2.00782C12.5723 1.22036 15.5592 2.3453 18.7063 5.14158C18.9064 5.31835 19.1066 5.5112 19.3148 5.70405C18.0736 7.04594 16.9285 8.47622 15.8795 9.97078C14.0697 10.1315 12.276 10.4127 10.4982 10.8065C10.3941 10.3967 10.3061 9.97882 10.218 9.56098C9.46523 5.67191 9.96172 2.73903 11.227 2.00782ZM9.26504 23.1888C8.92871 23.0924 8.60039 22.9879 8.27207 22.8755C6.56641 22.3371 4.62852 21.4853 3.22715 20.3684C2.41836 19.806 1.87383 18.9382 1.72168 17.9659C1.72168 16.4954 4.25215 14.6152 7.90371 13.3376C8.36016 13.1769 8.82461 13.0322 9.28906 12.8956C9.83359 14.6393 10.4902 16.3508 11.251 18.0061C10.4822 19.6854 9.81758 21.4211 9.26504 23.1888ZM18.6021 31.0634C17.2809 32.2767 15.7514 33.241 14.0857 33.8999C13.1969 34.3257 12.1719 34.3659 11.259 34.0043C9.98574 33.2651 9.45723 30.4286 10.1779 26.6119C10.266 26.1619 10.3621 25.7119 10.4742 25.27C12.268 25.6557 14.0777 25.9208 15.9115 26.0574C16.9686 27.56 18.1297 28.9983 19.3709 30.3483C19.1146 30.5974 18.8584 30.8384 18.6021 31.0634ZM20.5641 29.1108C19.7473 28.2269 18.9305 27.2466 18.1377 26.194C18.9064 26.2262 19.6992 26.2422 20.5 26.2422C21.3248 26.2422 22.1336 26.2262 22.9344 26.186C22.1977 27.2065 21.4049 28.1787 20.5641 29.1108ZM31.0303 31.5214C30.9582 32.5017 30.4777 33.4177 29.709 34.0365C28.4357 34.7757 25.7211 33.8115 22.7902 31.2884C22.4539 30.9991 22.1176 30.6857 21.7732 30.3643C22.9984 29.0064 24.1275 27.5681 25.1525 26.0574C26.9863 25.9048 28.8121 25.6235 30.6139 25.2137C30.6939 25.5432 30.766 25.8726 30.8301 26.194C31.2225 27.9296 31.2865 29.7376 31.0303 31.5214ZM32.4877 22.8835C32.2635 22.9558 32.0393 23.0281 31.807 23.0924C31.2465 21.3407 30.5578 19.6292 29.765 17.9659C30.5338 16.3267 31.1824 14.6393 31.727 12.9117C32.1434 13.0322 32.5438 13.1608 32.9281 13.2894C36.6598 14.575 39.2783 16.4874 39.2783 17.9498C39.2783 19.5247 36.4836 21.5577 32.4877 22.8835ZM20.5 21.6782C22.526 21.6782 24.1676 20.031 24.1676 17.998C24.1676 15.9651 22.526 14.3179 20.5 14.3179C18.474 14.3179 16.8324 15.9651 16.8324 17.998C16.8324 20.031 18.474 21.6782 20.5 21.6782Z" fill="white"/>
</svg>
