<svg width="21" height="21" viewBox="0 0 21 21" fill="none" xmlns="http://www.w3.org/2000/svg">
<path d="M15.7497 12.5099V17.7188L9.1873 21V15.1759C9.1873 14.2818 8.83458 13.4287 8.20295 12.797C7.57542 12.1695 6.72232 11.8127 5.8282 11.8127L0 11.7963L3.28118 5.25033H8.49005C12.0624 -0.635282 17.7102 -0.344078 20.6181 0.381884C21.3441 3.28983 21.6353 8.93756 15.7497 12.5099ZM6.82896 19.2774C4.79873 21.3076 0.0205074 20.9795 0.0205074 20.9795C0.0205074 20.9795 -0.307611 16.2013 1.72262 14.171C3.13353 12.7601 5.41805 12.7601 6.82896 14.171C8.23986 15.582 8.23986 17.8665 6.82896 19.2774Z" fill="white"/>
</svg>
