<svg width="24" height="24" viewBox="0 0 24 24" fill="none" xmlns="http://www.w3.org/2000/svg">
<path d="M0 10.499C0 11.3286 0.670312 11.999 1.5 11.999C2.32969 11.999 3 11.3286 3 10.499C3 8.01458 5.01562 5.99896 7.5 5.99896H15V7.49896C15 8.10365 15.3656 8.65208 15.9281 8.88646C16.4906 9.12083 17.1328 8.98958 17.5641 8.56302L20.5641 5.56302C21.15 4.97708 21.15 4.02552 20.5641 3.43958L17.5641 0.439583C17.1328 0.00833331 16.4906 -0.118229 15.9281 0.116146C15.3656 0.350521 15 0.894271 15 1.49896V2.99896H7.5C3.35625 2.99896 0 6.35521 0 10.499ZM24 13.499C24 12.6693 23.3297 11.999 22.5 11.999C21.6703 11.999 21 12.6693 21 13.499C21 15.9833 18.9844 17.999 16.5 17.999H9V16.499C9 15.8943 8.63437 15.3458 8.07187 15.1115C7.50937 14.8771 6.86719 15.0083 6.43594 15.4349L3.43594 18.4349C2.85 19.0208 2.85 19.9724 3.43594 20.5583L6.43594 23.5583C6.86719 23.9896 7.50937 24.1161 8.07187 23.8818C8.63437 23.6474 9 23.1036 9 22.4943V20.999H16.5C20.6437 20.999 24 17.6427 24 13.499Z" fill="white"/>
</svg>
