<svg width="24" height="24" viewBox="0 0 24 24" fill="none" xmlns="http://www.w3.org/2000/svg">
<path d="M21.3137 11.9804C24.1866 16.4414 24.8894 20.6061 22.767 22.7197C19.4924 25.9356 12.9748 21.9037 11.9999 21.3231C11.0292 21.9449 4.50039 26.0314 1.23275 22.7197C-0.883177 20.6061 -0.186796 16.4377 2.68551 11.9804C-0.189474 7.51232 -0.885856 3.35249 1.23007 1.23192C3.35296 -0.881707 7.52429 -0.186084 11.9972 2.68309C16.4701 -0.186084 20.643 -0.888663 22.7643 1.23192C24.8856 3.35249 24.1849 7.51232 21.3137 11.9804ZM4.32361 9.70085C5.90386 7.70763 7.7182 5.90222 9.71789 4.3178C7.47715 3.03144 4.25022 1.86065 3.05138 3.05124C2.15412 3.94859 2.48249 6.51169 4.32361 9.70085ZM9.72164 19.6322C7.71928 18.0606 5.90493 16.2547 4.32736 14.2545C2.4857 17.4447 2.15787 20.0121 3.05513 20.9004C3.94864 21.7993 6.51829 21.4729 9.72164 19.6322ZM18.1104 11.9804C16.3694 9.6741 14.2937 7.54603 11.9501 5.80537C9.59951 7.54442 7.52429 9.62433 5.78976 11.9804C7.61107 14.4215 9.53951 16.3344 11.9501 18.1179C14.4302 16.32 16.348 14.399 18.1104 11.9804ZM13.6642 11.9375C13.6642 12.8804 12.9009 13.6498 11.9501 13.6498C10.9992 13.6498 10.2359 12.8804 10.2359 11.9375C10.2359 10.9878 10.9992 10.2236 11.9501 10.2236C12.9464 10.2681 13.6642 11.0332 13.6642 11.9375ZM19.6692 14.2545C18.0889 16.2542 16.2746 18.0601 14.2749 19.6322C17.4756 21.4713 20.0442 21.7993 20.9441 20.9031C21.8387 20.0121 21.5119 17.4437 19.6692 14.2545ZM14.2749 4.3178C16.2773 5.89633 18.0916 7.7087 19.6692 9.70085C21.5108 6.51062 21.8387 3.94859 20.9414 3.05498C19.7495 1.86065 16.5301 3.02448 14.2749 4.3178Z" fill="white"/>
</svg>
