<svg width="23" height="19" viewBox="0 0 23 19" fill="current" xmlns="http://www.w3.org/2000/svg">
<path d="M20.6358 4.81535C20.6504 5.01965 20.6504 5.224 20.6504 5.4283C20.6504 11.6599 15.9074 18.8401 7.23858 18.8401C4.56788 18.8401 2.08694 18.0666 0 16.724C0.379455 16.7678 0.744266 16.7824 1.13832 16.7824C3.34196 16.7824 5.37054 16.0381 6.99047 14.7684C4.91814 14.7246 3.18146 13.3674 2.5831 11.4994C2.875 11.5431 3.16686 11.5723 3.47336 11.5723C3.89657 11.5723 4.31982 11.5139 4.71383 11.4118C2.55394 10.974 0.933971 9.07677 0.933971 6.78553V6.72718C1.56148 7.07743 2.29124 7.29634 3.06466 7.32549C1.79499 6.47903 0.96317 5.03425 0.96317 3.39972C0.96317 2.52411 1.19663 1.72144 1.60528 1.02093C3.92572 3.88133 7.41368 5.74932 11.3248 5.95367C11.2519 5.60341 11.2081 5.2386 11.2081 4.87374C11.2081 2.276 13.3096 0.159912 15.9219 0.159912C17.2791 0.159912 18.505 0.729072 19.366 1.64849C20.4314 1.44418 21.4529 1.05013 22.3578 0.510168C22.0075 1.60473 21.2632 2.52415 20.2855 3.10787C21.2341 3.00576 22.1535 2.74301 22.9999 2.3782C22.3579 3.31217 21.5552 4.14399 20.6358 4.81535Z" fill="current"/>
</svg>
